<?xml version="1.0" encoding="utf-8"?>
<!-- Generator: Adobe Illustrator 19.0.0, SVG Export Plug-In . SVG Version: 6.00 Build 0)  -->
<svg version="1.1" id="Layer_1" xmlns="http://www.w3.org/2000/svg" xmlns:xlink="http://www.w3.org/1999/xlink" x="0px" y="0px"
	 viewBox="0 0 397 72.6" style="enable-background:new 0 0 397 72.6;" xml:space="preserve">
<style type="text/css">
	.st0{fill:#112136;}
</style>
<g id="XMLID_5_">
	<path id="XMLID_6_" class="st0" d="M16.4,36.3c-2.2,4.6-3.3,8.6-3.3,12.1c0,0.3,0,0.7,0,1.1c0,0.5,0.1,0.9,0.2,1.4
		c0.2,1.2,0.6,2.2,1.1,3.2c1.4,2.6,3.9,3.9,7.3,3.9h7.8c3.9,0,6.6-0.5,8.2-1.6c0.8-0.5,1.2-1,1.2-1.5c-2.7-1.6-6.3-2.8-11-3.7v-8.5
		h25.8v9.2h-6.8c0.4,0.7,0.6,1.6,0.6,2.8c0,0.4,0,0.9-0.1,1.3c-0.1,0.6-0.2,1.2-0.3,1.7c-0.4,1.6-1.1,2.9-2.1,4.1
		c-2.9,3.5-8.1,5.2-15.4,5.2h-7.8c-6.3,0-11-2.2-14.1-6.6c-2.5-3.4-3.7-7.4-3.7-12.1c0-3.5,0.7-7.2,2.1-11.2c0.7-2,1.4-3.6,2.1-4.9
		L16.4,36.3z"/>
	<path id="XMLID_8_" class="st0" d="M75.7,42.1c0.7-0.5,1.1-1.5,1.1-2.8v-6.8H86v6.8c0,1.2,0.2,2,0.6,2.5c0.5,0.6,1.4,0.9,2.8,0.9
		c2.1,0,3.2-0.7,3.2-2.2c0-0.3,0-0.7-0.1-1.1c-1.1-4.4-1.8-7.4-2.1-8.9l9-2.1c0.5,2.3,1.2,5.2,2.1,8.9c0.2,0.8,0.3,1.7,0.3,2.5
		c0,0.7-0.1,1.5-0.2,2.2c-0.3,1.7-0.9,3.3-1.9,4.8c-2.2,3.4-5.5,5.2-9.8,5.2c-1.9,0-3.7-0.3-5.4-0.9c-1.1-0.4-2.2-1-3.1-1.7
		c-2.2,1.7-4.8,2.6-7.7,2.6c-3,0-5.7-0.9-7.9-2.6c-1.5,1.7-4.2,2.6-8.1,2.6h-5.4v-9.2h5.4c1.4,0,2.3-0.3,2.8-0.9
		c0.4-0.5,0.6-1.3,0.6-2.5v-6.8h9.2v6.8c0,1.3,0.3,2.3,1,2.8c0.5,0.4,1.2,0.6,2.1,0.6C74.4,42.7,75.1,42.5,75.7,42.1z"/>
	<path id="XMLID_10_" class="st0" d="M121.4,47.6c0,5.9-1.5,10.5-4.4,13.8c-3.3,3.7-8.1,5.6-14.4,5.6h-2.8v-9.2h2.8
		c3.5,0,5.9-0.8,7.4-2.3c1.5-1.6,2.2-4.2,2.2-7.8V32.4h9.2V47.6z"/>
	<path id="XMLID_12_" class="st0" d="M140.9,51.9h-2.5c-2.1,0-4-0.4-5.6-1.1c-1.3-0.5-2.4-1.3-3.3-2.2c-0.9-0.9-1.7-2-2.2-3.3
		c-0.7-1.7-1.1-3.5-1.1-5.6V11.3h9.2v28.4c0,1.1,0.2,1.9,0.6,2.4c0.4,0.4,1.2,0.6,2.4,0.6h2.5V51.9z"/>
	<path id="XMLID_14_" class="st0" d="M167.5,23.5c1.7,3.3,2.6,7.6,2.6,12.9c0,5.7-2.2,9.9-6.5,12.5c-3.2,2-7.2,2.9-11.9,2.9h-11.8
		v-9.2h11.8c3.1,0,5.5-0.2,7-0.6c-4.3,0-7.8-0.9-10.5-2.8c-3.2-2.2-4.8-5.4-4.8-9.7c0-1.3,0.2-2.5,0.5-3.8c0.4-1.6,1.1-3,2-4.2
		c2.3-3.2,5.8-4.8,10.5-4.8C161.5,16.8,165.2,19,167.5,23.5z M148.5,7.5l5.9-5.9l6,6l-5.9,5.9L148.5,7.5z M161.1,32.9l-0.1-0.6
		c-0.1-0.5-0.1-0.9-0.2-1.3c-0.2-1-0.4-1.8-0.6-2.5c-0.7-1.8-2-2.8-3.8-2.9l-0.3,0h-0.3c-1.2,0-2.2,0.4-2.9,1.1
		c-0.6,0.7-1,1.5-1,2.6v0.3c0.1,1.8,1,3,2.8,3.6c1.1,0.3,3.2,0.5,6.4,0.5L161.1,32.9z"/>
	<path id="XMLID_18_" class="st0" d="M211.7,52.2c-5.3,0-8.7-0.1-10.2-0.4c-2.9-0.5-5.1-1.9-6.6-4.2c-1-1.4-1.6-3.1-1.8-5
		c-0.1-0.7-0.1-1.4-0.1-2.1c0-0.8,0-1.6,0.1-2.5c0.1-1.2,0.5-2.8,1-5c0.2-0.7,0.4-1.4,0.6-2.1c0.1-0.2,0.1-0.5,0.2-0.7
		c0-0.2,0.1-0.3,0.1-0.3l8.9,2.5c-1,3.4-1.6,6.2-1.9,8.4c0,0.2,0,0.3,0,0.5c0,0.4,0.1,0.7,0.2,0.9c0.2,0.5,0.6,0.7,1.2,0.7H234
		c1.7,0,2.9-0.2,3.6-0.7c0.7-0.4,1.1-1.1,1.1-2.1c0-0.3,0-0.6-0.1-0.9c-0.2-1-0.4-1.9-0.6-2.9c-0.1-0.4-0.2-0.8-0.2-1.2l-0.1-0.5
		l-0.1-0.5c-0.1-0.7-0.2-1.3-0.3-1.9l8.8-2.5c0.5,2.3,1,5,1.6,8.1c0.2,0.9,0.2,1.8,0.2,2.6c0,2.6-0.7,4.8-2.2,6.9
		c-2.3,3.2-6.2,4.8-11.5,4.8H211.7z M215,30.9l-5.5-5.6l5.4-5.6l5.6,5.6L215,30.9z M226.9,30.9l-5.5-5.6l5.5-5.6l5.6,5.6L226.9,30.9
		z"/>
	<path id="XMLID_22_" class="st0" d="M267.3,47.6c0,5.9-1.5,10.5-4.4,13.8c-3.3,3.7-8.1,5.6-14.4,5.6h-2.8v-9.2h2.8
		c3.5,0,5.9-0.8,7.4-2.3c1.5-1.6,2.2-4.2,2.2-7.8V32.4h9.2V47.6z"/>
	<path id="XMLID_24_" class="st0" d="M286.8,51.9h-2.5c-2.1,0-4-0.4-5.6-1.1c-1.3-0.5-2.4-1.3-3.3-2.2c-0.9-0.9-1.7-2-2.2-3.3
		c-0.7-1.7-1.1-3.5-1.1-5.6V11.3h9.2v28.4c0,1.1,0.2,1.9,0.6,2.4c0.4,0.4,1.2,0.6,2.4,0.6h2.5V51.9z"/>
	<path id="XMLID_26_" class="st0" d="M314.6,31.9c0.9,1.4,1.5,3,2,4.8c0.4,1.5,0.6,3,0.6,4.3c0,4.6-1.1,8-3.4,10.3
		c-0.9,0.9-1.9,1.6-3,2c-0.9,0.4-1.9,0.6-2.8,0.6c-0.2,0-0.5,0-0.8,0c-2.3,0-4.8-0.6-7.5-1.7c-0.9-0.4-1.9-0.9-2.9-1.4l-0.6-0.3
		l-0.6-0.3c-0.4-0.3-0.7-0.4-0.9-0.5c-1.5,1.5-4.1,2.3-7.7,2.3h-1.5v-9.2h1.2c1.9,0,3.1-0.4,3.7-1.2c0.3-0.4,0.8-1.8,1.6-4.2
		c0.1-0.2,0.1-0.3,0.2-0.5c0.1-0.2,0.1-0.4,0.2-0.6c0.2-0.5,0.4-1,0.6-1.5c0.6-1.4,1.4-2.6,2.3-3.6c2.5-3.1,5.7-4.6,9.5-4.6
		C309,26.4,312.3,28.2,314.6,31.9z M308.3,43.8c0.2-0.7,0.4-1.4,0.4-2.2c0-0.2,0-0.4,0-0.6c-0.1-1.4-0.5-2.7-1.3-3.7
		c-0.8-1.1-1.7-1.6-2.7-1.6c-1.4,0-2.5,0.8-3.4,2.5c-0.3,0.6-0.6,1.3-0.9,2.1c-0.1,0.3-0.2,0.6-0.3,1l-0.1,0.4l-0.1,0.4
		c1.1,0.9,2.5,1.7,4.2,2.3c1.4,0.5,2.5,0.7,3.3,0.7C307.7,45,308,44.6,308.3,43.8z"/>
	<path id="XMLID_29_" class="st0" d="M343.6,29.5c2.3,2.8,3.4,6.2,3.4,10.3v2.9h2.8v9.2h-2.9c-0.5,5.8-3.3,10-8.6,12.5
		c-2,1-4.4,1.7-7.2,2.1c-2.2,0.4-4.5,0.5-7,0.5v-9.2c4.7,0,8.2-0.7,10.6-2c1.9-1.1,2.9-2.4,2.9-4h-3.9c-3.3,0-6.2-0.9-8.5-2.7
		c-2.8-2.2-4.2-5.3-4.2-9.4c0-3.9,0.9-7.2,2.8-9.9c2.3-3.3,5.6-5,9.9-5C337.8,25,341.1,26.5,343.6,29.5z M337.7,42.7v-2.9
		c0-1.7-0.4-3.1-1.1-4.1c-0.7-1-1.7-1.5-3-1.5c-1.3,0-2.3,0.5-3,1.5c-0.7,0.9-1,2.1-1,3.6c0,0.2,0,0.3,0,0.5c0.1,1,0.5,1.7,1.4,2.3
		c0.7,0.4,1.6,0.6,2.7,0.6H337.7z"/>
	<path id="XMLID_32_" class="st0" d="M372.8,37.6c0.2,0.9,0.2,1.8,0.2,2.6c0,2.6-0.7,4.8-2.2,6.9c-2.3,3.2-6.2,4.8-11.5,4.8h-11
		v-9.2h10.8c1.7,0,2.9-0.2,3.6-0.7c0.7-0.4,1.1-1.1,1.1-2.1c0-0.3,0-0.6-0.1-0.9c-0.2-1-0.4-1.9-0.6-2.9c-0.1-0.4-0.2-0.8-0.2-1.2
		l-0.1-0.5l-0.1-0.5c-0.3-1.5-0.5-2.6-0.6-3.3l8.8-2.7C371.5,30.5,372.1,33.7,372.8,37.6z M352.2,27.8v-4.2l3.5-1.1
		c-0.6-0.6-1-1.2-1.4-2s-0.5-1.5-0.5-2.3c0-0.6,0.1-1.3,0.3-1.9c0.2-0.6,0.5-1.2,0.9-1.7c0.4-0.5,0.9-1,1.4-1.4
		c0.5-0.4,1.1-0.7,1.7-0.8c0.3-0.1,0.6-0.2,1-0.2c0.3,0,0.7-0.1,1-0.1c0.7,0,1.3,0.1,1.8,0.2s1,0.3,1.5,0.5l0.5,0.2l-0.8,3.5
		c-0.3-0.1-0.6-0.1-0.9-0.2s-0.6-0.2-1-0.2c-0.3-0.1-0.6-0.1-0.9-0.1c-0.3,0-0.6,0-0.8,0.1c-0.3,0.1-0.5,0.2-0.8,0.4
		c-0.3,0.2-0.5,0.4-0.6,0.6c-0.2,0.2-0.3,0.5-0.3,0.7c0,0.1-0.1,0.2-0.1,0.3c0,0.2,0,0.4,0.1,0.6c0.2,0.5,0.5,0.9,1.1,1.2
		c0.6,0.3,1.3,0.5,2.3,0.5c0.2,0,0.4,0,0.6,0c0.2,0,0.5-0.1,0.9-0.2c0.4-0.1,0.8-0.2,1.4-0.4c0.6-0.2,1.3-0.4,2.1-0.7l0.2,4
		L352.2,27.8z"/>
	<path id="XMLID_35_" class="st0" d="M393.2,47.6c0,5.9-1.5,10.5-4.4,13.8c-3.3,3.7-8.1,5.6-14.4,5.6h-2.8v-9.2h2.8
		c3.5,0,5.9-0.8,7.4-2.3c1.5-1.6,2.2-4.2,2.2-7.8V32.4h9.2V47.6z M382.8,20.5l5.9-5.9l6,6l-5.9,5.9L382.8,20.5z"/>
</g>
</svg>
